# xmcd
#
# Track frame offsets:
#       150
#       28835
#       56200
#       77107
#       107660
#       129425
#       150957
#       168102
#       186037
#       223985
#       229865
#       254825
#       279622
#
# Disc length: 3974 seconds
#
# Revision: 0
# Processed by: cddbd v1.5PL3 Copyright (c) Steve Scherf et al.
# Submitted via: WhereIsIt 3.60
#
DISCID=b80f840d
DTITLE=Hunting Lodge - Will
DYEAR=1991
DGENRE=
TTITLE0=Na Vilavilairevu
TTITLE1=We Are They
TTITLE2=Hand of Glory
TTITLE3=Shugendo Gyozha - You Are Of Me
TTITLE4=Icepick Method
TTITLE5=Sounds Like a Picture
TTITLE6=S/M Operations
TTITLE7=Will
TTITLE8=Banishing Dirge (Full length encore killing version)
TTITLE9=He done it the Way he done it
TTITLE10=He done it the Way he done it - II
TTITLE11=Atum
TTITLE12=Rip you to Shreds
EXTD=
EXTT0=
EXTT1=
EXTT2=
EXTT3=
EXTT4=
EXTT5=
EXTT6=
EXTT7=
EXTT8=
EXTT9=
EXTT10=
EXTT11=
EXTT12=
PLAYORDER=
